<svg xmlns="http://www.w3.org/2000/svg" version="1.1" xmlns:xlink="http://www.w3.org/1999/xlink" xmlns:svgjs="http://svgjs.dev/svgjs" width="1000" height="1000" viewBox="0 0 1000 1000"><rect width="1000" height="1000" fill="#ffffff"></rect><g transform="matrix(0.7,0,0,0.7,150.093733479891,123.00607022643709)"><svg viewBox="0 0 229 247" data-background-color="#ffffff" preserveAspectRatio="xMidYMid meet" height="1078" width="1000" xmlns="http://www.w3.org/2000/svg" xmlns:xlink="http://www.w3.org/1999/xlink"><g id="tight-bounds" transform="matrix(1,0,0,1,-0.03049576157860656,-0.09997365579206985)"><svg viewBox="0 0 229.06114145772597 247.2" height="247.2" width="229.06114145772597"><g><svg viewBox="0 0 229.06114145772597 247.2" height="247.2" width="229.06114145772597"><g><svg viewBox="0 0 229.06114145772597 247.2" height="247.2" width="229.06114145772597"><g id="textblocktransform"><svg viewBox="0 0 229.06114145772597 247.2" height="247.2" width="229.06114145772597" id="textblock"><g><svg viewBox="0 0 229.06114145772597 247.2" height="247.2" width="229.06114145772597"><path d="M228.525 53.02C227.448 27.36 224.379 20.227 224.379 20.227 214.956-6.202 203.197-0.506 192.633 3.292 173.982 3.446 155.406 9.091 136.797 12.119 97.74 12.581 58.348 4.986 19.484 23.717 15.833 29.464-3.787 24.846 0.649 56.304 1.812 69.39 6.055 83.913 5.926 95.922 6.507 98.026 7.315 93.202 7.66 96.23 8.866 104.39 10.836 100.541 12.452 105.365 10.201 118.246 11.816 128.971 13.356 140.21 10.643 143.135 7.164 141.749 5.603 151.449 5.441 158.479 4.569 157.145 3.611 156.837 2.911 156.632 1.5 157.402 1.737 159.608 2.545 167.152-0.923 171.514 1.252 178.904-0.244 186.91 2.286 193.838 1.942 202.511 1.899 204.255 2.135 205.744 2.512 206.154 4.181 208.361 1.748 212.672 2.006 217.342 19.128 249.262 37.704 227.195 55.246 241.872 59.802 231.608 56.377 245.516 58.197 243.36 59.618 240.846 60.652 251.263 62.257 245.362 62.504 243.668 62.128 239.665 63.011 240.435 63.474 240.846 63.883 240.743 63.947 238.382 64.044 234.841 63.194 237.048 62.968 235.201 65.412 225.861 64.809 248.081 67.103 247.158 66.995 244.438 66.327 240.538 67.695 241.051 69.052 237.151 69.095 233.918 70.301 242.693 70.344 244.592 70.559 245.926 70.904 246.85 74.673 237.305 78.421 250.237 82.373 245.926 84.796 241.205 87.122 248.492 89.577 246.696 90.438 245.259 91.311 242.693 92.14 247.004 102.295 247.928 113.117 244.079 122.744 247.158 148.471 241.41 175.963 249.518 203.089 241.923 209.486 238.998 216.13 234.841 222.365 231.506 222.365 231.506 227.416 222.371 227.416 181.316S228.493 145.393 228.654 112.703C228.816 80.013 229.569 78.679 228.493 53.02Z" opacity="1" fill="#ee3e38" data-fill-palette-color="tertiary"></path><g transform="matrix(1,0,0,1,55.76832000000001,26.230666666666668)"><svg width="117.52450145772595" viewBox="2.9000000953674316 -33.95000076293945 20.700000762939453 34.29999923706055" height="194.73866666666666" data-palette-color="#ffffff"><path d="M23.6-9.2L23.6-9.2Q23.6-4.75 20.45-2.2 17.3 0.35 12.3 0.35L12.3 0.35Q6.75 0.35 3.1-1.8L3.1-1.8 3.1-7.15Q7.05-4.2 12.25-4.2L12.25-4.2Q15-4.2 16.6-5.48 18.2-6.75 18.2-9L18.2-9Q18.2-10.35 17.25-11.48 16.3-12.6 15.2-13.18 14.1-13.75 11.9-14.75L11.9-14.75Q10.6-15.35 10.08-15.6 9.55-15.85 8.35-16.5 7.15-17.15 6.58-17.6 6-18.05 5.15-18.85 4.3-19.65 3.93-20.45 3.55-21.25 3.23-22.33 2.9-23.4 2.9-24.65L2.9-24.65Q2.9-28.95 6.03-31.45 9.15-33.95 14.1-33.95L14.1-33.95Q18.65-33.95 21.85-32.35L21.85-32.35 21.85-27.25Q18.5-29.35 14.25-29.35L14.25-29.35Q11.5-29.35 9.93-28.13 8.35-26.9 8.35-24.9 8.35-22.9 9.9-21.7 11.45-20.5 14.65-19.1L14.65-19.1Q16.75-18.2 17.93-17.55 19.1-16.9 20.63-15.73 22.15-14.55 22.88-12.93 23.6-11.3 23.6-9.2Z" opacity="1" transform="matrix(1,0,0,1,0,0)" fill="#ffffff" class="wordmark-text-0" data-fill-palette-color="quaternary" id="text-0"></path></svg></g></svg></g></svg></g></svg></g><g></g></svg></g><defs></defs></svg><rect width="229.06114145772597" height="247.2" fill="none" stroke="none" visibility="hidden"></rect></g></svg></g></svg>